{"title":"The Judge 2014 WEB-DL x264 1080p HC English [XKlusiveDD]","uid":11279496,"size":3027600673,"categoryP":"video","categoryS":"hd___movies","magnet":"?xt=urn:btih:5e952113424b9f25f0facba6328996fa3e3ee8e9&amp;dn=The+Judge+2014+WEB-DL+x264+1080p+HC+English+%5BXKlusiveDD%5D&amp;tr=udp%3A%2F%2Ftracker.openbittorrent.com%3A80&amp;tr=udp%3A%2F%2Fopen.demonii.com%3A1337&amp;tr=udp%3A%2F%2Ftracker.coppersurfer.tk%3A6969&amp;tr=udp%3A%2F%2Fexodus.desync.com%3A6969","seeders":27,"leechers":1,"uploader":"shawnmurthy","files":-1,"time":1414199345,"description":"XKlusiveDD  PROUDLY PRESENTS....A XKlusiveDD EXCLUSIVE\n    &lt;a href=&quot;\nhttp://i.imgur.com/98TrlEc.png&quot; rel=&quot;nofollow&quot; target=&quot;_NEW&quot;&gt;\nhttp://i.imgur.com/98TrlEc.png&lt;/a&gt;\n\n\nNEW SOURCE.......VIDEO WEB.......AUDIO WEB IN ENGLISH.......SUBS HARDCORE CHINNESE.......ENJOY.......XKlusiveDD\n\n\nSCREENSHOTS AND SAMPLE: \n  &lt;a href=&quot;\nhttp://i.imgur.com/ALvqIsv.jpg&quot; rel=&quot;nofollow&quot; target=&quot;_NEW&quot;&gt;\nhttp://i.imgur.com/ALvqIsv.jpg&lt;/a&gt;  &lt;a href=&quot;\nhttp://i.imgur.com/GvK5sVq.jpg&quot; rel=&quot;nofollow&quot; target=&quot;_NEW&quot;&gt;\nhttp://i.imgur.com/GvK5sVq.jpg&lt;/a&gt;  &lt;a href=&quot;\nhttp://i.imgur.com/YmoS6YZ.jpg&quot; rel=&quot;nofollow&quot; target=&quot;_NEW&quot;&gt;\nhttp://i.imgur.com/YmoS6YZ.jpg&lt;/a&gt;  &lt;a href=&quot;\nhttp://i.imgur.com/gXJYMXu.jpg&quot; rel=&quot;nofollow&quot; target=&quot;_NEW&quot;&gt;\nhttp://i.imgur.com/gXJYMXu.jpg&lt;/a&gt;  &lt;a href=&quot;\nhttp://i.imgur.com/8gbft9t.jpg&quot; rel=&quot;nofollow&quot; target=&quot;_NEW&quot;&gt;\nhttp://i.imgur.com/8gbft9t.jpg&lt;/a&gt;  &lt;a href=&quot;\nhttp://i.imgur.com/JSKDUfm.jpg&quot; rel=&quot;nofollow&quot; target=&quot;_NEW&quot;&gt;\nhttp://i.imgur.com/JSKDUfm.jpg&lt;/a&gt;\n\n\nThe Judge (2014) WEB-DL x264 1080p HC AC3 2.0 English [XKlusiveDD]\n\n\nGeneral\nComplete name                            : The Judge (2014) WEB-DL x264 1080p HC AC3 2.0 English [XKlusiveDD]The Judge (2014) WEB-DL x264 1080p HC AC3 2.0 English [XKlusiveDD].mkv\nFormat                                   : Matroska\nFormat version                           : Version 2\nFile size                                : 2.82 GiB\nDuration                                 : 2h 21mn\nOverall bit rate                         : 2 854 Kbps\nEncoded date                             : UTC 2014-10-24 18:01:14\nWriting application                      : mkvmerge v3.4.0 ('Rapunzel') built on May 15 2010 09:38:20\nWriting library                          : libebml v0.8.0 + libmatroska v0.9.0\n\nVideo\nID                                       : 1\nFormat                                   : AVC\nFormat/Info                              : Advanced Video Codec\nFormat profile                           : &lt;a class=&quot;__cf_email__&quot; href=&quot;/cdn-cgi/l/email-protection&quot; data-cfemail=&quot;a4e9c5cdcae4e8908a94&quot;&gt;[email&amp;#160;protected]&lt;/a&gt;&lt;script cf-hash='f9e31' type=&quot;text/javascript&quot;&gt;\n/* &lt;![CDATA[ */!function(){try{var t=&quot;currentScript&quot;in document?document.currentScript:function(){for(var t=document.getElementsByTagName(&quot;script&quot;),e=t.length;e--;)if(t[e].getAttribute(&quot;cf-hash&quot;))return t[e]}();if(t&amp;&amp;t.previousSibling){var e,r,n,i,c=t.previousSibling,a=c.getAttribute(&quot;data-cfemail&quot;);if(a){for(e=&quot;&quot;,r=parseInt(a.substr(0,2),16),n=2;a.length-n;n+=2)i=parseInt(a.substr(n,2),16)^r,e+=String.fromCharCode(i);e=document.createTextNode(e),c.parentNode.replaceChild(e,c)}}}catch(u){}}();/* ]]&gt; */&lt;/script&gt;\nFormat settings, CABAC                   : Yes\nFormat settings, ReFrames                : 4 frames\nCodec ID                                 : V_MPEG4/ISO/AVC\nDuration                                 : 2h 21mn\nBit rate                                 : 2 541 Kbps\nWidth                                    : 1 920 pixels\nHeight                                   : 800 pixels\nDisplay aspect ratio                     : 2.40:1\nFrame rate mode                          : Constant\nFrame rate                               : 23.976 fps\nColor space                              : YUV\nChroma subsampling                       : 4:2:0\nBit depth                                : 8 bits\nScan type                                : Progressive\nBits/(Pixel*Frame)                       : 0.069\nStream size                              : 2.51 GiB (89%)\nDefault                                  : Yes\nForced                                   : No\nColor primaries                          : BT.709\nTransfer characteristics                 : BT.709\nMatrix coefficients                      : BT.709\n\nAudio\nID                                       : 2\nFormat                                   : AC-3\nFormat/Info                              : Audio Coding 3\nMode extension                           : CM (complete main)\nFormat settings, Endianness              : Big\nCodec ID                                 : A_AC3\nDuration                                 : 2h 21mn\nBit rate mode                            : Constant\nBit rate                                 : 256 Kbps\nChannel count                            : 2 channels\nChannel positions                        : Front: L R\nSampling rate                            : 48.0 KHz\nBit depth                                : 16 bits\nCompression mode                         : Lossy\nStream size                              : 259 MiB (9%)\nDefault                                  : Yes\nForced                                   : No","torrent":{"xt":"urn:btih:5e952113424b9f25f0facba6328996fa3e3ee8e9","amp;dn":"The+Judge+2014+WEB-DL+x264+1080p+HC+English+%5BXKlusiveDD%5D","amp;tr":["udp%3A%2F%2Ftracker.openbittorrent.com%3A80","udp%3A%2F%2Fopen.demonii.com%3A1337","udp%3A%2F%2Ftracker.coppersurfer.tk%3A6969","udp%3A%2F%2Fexodus.desync.com%3A6969"],"infoHash":"5e952113424b9f25f0facba6328996fa3e3ee8e9","infoHashBuffer":{"type":"Buffer","data":[94,149,33,19,66,75,159,37,240,250,203,166,50,137,150,250,62,62,232,233]},"announce":[],"urlList":[]}}